<?xml version="1.0" standalone="no"?>
<!DOCTYPE svg PUBLIC "-//W3C//DTD SVG 20010904//EN"
 "http://www.w3.org/TR/2001/REC-SVG-20010904/DTD/svg10.dtd">
<svg version="1.0" xmlns="http://www.w3.org/2000/svg"
 width="2048.000000pt" height="2048.000000pt" viewBox="0 0 2048.000000 2048.000000"
 preserveAspectRatio="xMidYMid meet">
<metadata>
Created by potrace 1.11, written by Peter Selinger 2001-2013
</metadata>
<g transform="translate(0.000000,2048.000000) scale(0.100000,-0.100000)"
fill="#000000" stroke="none">
<path d="M9665 19770 c-27 -3 -83 -5 -122 -5 -40 0 -73 -2 -73 -5 0 -3 -24 -6
-53 -6 -57 -2 -170 -10 -257 -20 -30 -3 -73 -7 -95 -9 -22 -2 -62 -7 -90 -10
-81 -11 -247 -34 -285 -40 -19 -3 -50 -7 -67 -10 -18 -3 -50 -8 -70 -11 -21
-3 -49 -7 -63 -10 -14 -3 -38 -7 -55 -10 -16 -3 -64 -12 -105 -20 -41 -9 -88
-18 -105 -20 -16 -3 -68 -15 -115 -26 -47 -11 -94 -21 -105 -23 -66 -11 -415
-105 -610 -165 -38 -12 -74 -23 -80 -24 -5 -2 -17 -5 -25 -8 -8 -3 -67 -22
-130 -43 -63 -20 -124 -40 -135 -45 -11 -5 -47 -18 -80 -30 -33 -11 -69 -24
-80 -29 -11 -5 -76 -30 -145 -57 -69 -26 -149 -58 -178 -71 -29 -12 -55 -23
-58 -23 -5 0 -51 -20 -187 -84 -42 -20 -80 -36 -83 -36 -29 0 -694 -348 -891
-466 -116 -70 -178 -110 -181 -116 -2 -5 -8 -8 -13 -8 -5 0 -68 -39 -140 -87
-72 -49 -142 -95 -155 -103 -53 -34 -170 -116 -179 -126 -5 -6 -32 -26 -60
-44 -27 -19 -52 -36 -55 -39 -10 -12 -89 -71 -94 -71 -3 0 -15 -8 -25 -17 -29
-26 -48 -42 -100 -81 -25 -19 -48 -38 -51 -41 -3 -3 -41 -35 -85 -70 -44 -36
-87 -72 -96 -80 -9 -9 -37 -34 -64 -56 -26 -22 -71 -60 -98 -85 -28 -25 -62
-55 -76 -68 -178 -159 -476 -458 -649 -651 -37 -41 -80 -88 -95 -105 -15 -16
-40 -45 -55 -64 -15 -19 -39 -49 -55 -66 -15 -17 -44 -52 -64 -78 -21 -27 -41
-48 -45 -48 -4 0 -8 -4 -8 -9 0 -9 -24 -41 -62 -82 -10 -10 -18 -23 -18 -28 0
-5 -4 -11 -9 -13 -12 -5 -141 -176 -141 -188 0 -5 -4 -10 -9 -10 -5 0 -18 -15
-30 -32 -11 -18 -38 -58 -61 -88 -113 -155 -376 -558 -440 -676 -12 -21 -29
-52 -39 -69 -22 -36 -56 -96 -84 -150 -12 -22 -24 -42 -27 -45 -3 -3 -39 -72
-80 -155 -41 -82 -77 -152 -80 -155 -3 -3 -18 -34 -35 -70 -16 -36 -34 -68
-40 -72 -5 -4 -6 -8 -1 -8 5 0 4 -6 -2 -12 -5 -7 -37 -76 -72 -153 -34 -77
-68 -153 -75 -170 -8 -16 -30 -70 -50 -120 -20 -49 -42 -103 -49 -120 -7 -16
-19 -46 -26 -65 -6 -19 -16 -44 -21 -55 -11 -24 -58 -153 -64 -175 -5 -15 -73
-213 -76 -217 -1 -2 -2 -6 -3 -10 -3 -14 -57 -187 -66 -213 -23 -64 -135 -479
-146 -540 -3 -14 -7 -31 -10 -39 -2 -8 -7 -30 -10 -50 -3 -20 -9 -47 -14 -61
-8 -22 -29 -126 -45 -219 -3 -19 -7 -37 -9 -40 -2 -3 -7 -28 -10 -55 -4 -27
-9 -52 -11 -56 -3 -5 -9 -40 -20 -117 -2 -15 -6 -44 -9 -63 -17 -102 -38 -250
-42 -290 -8 -79 -11 -94 -26 -130 -8 -19 -16 -62 -17 -95 -2 -33 -5 -78 -7
-100 -24 -294 -27 -409 -27 -810 1 -334 6 -600 13 -600 1 0 3 -27 5 -60 5 -80
14 -193 19 -230 2 -16 7 -64 11 -105 7 -75 9 -96 19 -160 3 -19 10 -75 17
-125 6 -49 13 -94 14 -100 1 -5 5 -32 9 -60 8 -49 12 -73 20 -117 4 -20 11
-61 21 -123 2 -11 11 -56 20 -100 9 -44 18 -89 20 -100 2 -11 10 -48 18 -82 9
-35 13 -63 11 -63 -3 0 0 -8 5 -18 5 -10 12 -38 16 -62 4 -25 9 -48 12 -52 2
-5 6 -18 9 -31 6 -35 28 -120 59 -232 9 -33 18 -67 20 -75 2 -8 13 -46 25 -85
11 -38 22 -77 24 -85 9 -32 81 -258 93 -288 3 -9 7 -20 8 -24 2 -5 4 -10 5
-13 1 -3 3 -9 4 -14 0 -5 4 -13 8 -17 5 -4 8 -17 8 -29 0 -12 3 -25 8 -29 4
-4 7 -11 8 -14 0 -4 6 -20 12 -35 7 -16 12 -31 12 -34 0 -6 109 -292 129 -338
5 -11 16 -36 24 -55 8 -19 26 -62 40 -95 26 -62 59 -134 132 -292 24 -50 46
-101 50 -112 3 -12 11 -21 17 -21 6 0 9 -2 6 -5 -7 -7 128 -272 226 -443 20
-35 36 -68 36 -73 0 -5 4 -9 10 -9 5 0 9 -3 8 -7 -1 -5 5 -19 13 -33 18 -28
118 -192 158 -258 14 -24 31 -51 36 -60 21 -34 169 -257 175 -262 3 -3 23 -32
45 -65 22 -33 43 -61 48 -63 4 -2 7 -10 7 -17 0 -7 3 -15 8 -17 4 -1 45 -55
92 -118 47 -63 89 -120 95 -126 5 -6 17 -22 25 -34 8 -12 20 -28 25 -34 11
-11 161 -194 205 -250 13 -17 36 -43 50 -57 14 -14 43 -47 64 -73 90 -109 236
-265 426 -455 227 -228 454 -435 650 -595 41 -33 80 -65 86 -71 7 -5 26 -21
44 -35 18 -14 37 -30 44 -36 23 -21 334 -252 421 -312 50 -34 99 -69 110 -76
11 -8 65 -44 120 -80 55 -36 105 -70 112 -75 7 -6 28 -18 47 -28 20 -9 36 -20
36 -25 0 -4 4 -8 9 -8 5 0 61 -32 125 -70 64 -39 138 -82 164 -96 26 -14 63
-35 82 -46 87 -52 477 -251 581 -297 30 -13 86 -39 124 -58 39 -19 70 -33 70
-32 0 1 23 -8 50 -20 85 -38 435 -176 520 -205 44 -16 89 -32 100 -36 32 -13
59 -23 70 -25 25 -6 152 -47 170 -55 11 -5 47 -17 80 -26 33 -10 65 -19 70
-21 211 -61 375 -105 560 -149 61 -14 119 -28 130 -30 11 -3 29 -7 40 -8 11
-2 38 -7 60 -12 22 -4 42 -9 45 -9 3 -1 25 -5 50 -9 25 -5 54 -10 65 -13 48
-10 143 -27 219 -38 21 -3 41 -7 45 -9 3 -2 37 -7 76 -11 38 -3 72 -8 75 -10
3 -1 32 -6 65 -10 33 -3 74 -8 90 -10 54 -7 119 -14 180 -20 33 -3 78 -8 100
-10 382 -41 1104 -50 1480 -20 147 12 236 20 325 29 25 2 77 7 115 11 39 4 72
8 75 10 3 2 39 6 80 10 41 4 77 8 80 10 3 2 30 6 60 10 54 6 86 11 125 19 11
2 40 7 65 11 25 4 54 9 65 11 11 3 36 7 55 10 19 3 42 7 50 9 8 3 33 7 55 10
22 4 56 10 75 15 19 5 46 11 60 14 20 3 160 34 230 51 18 4 148 35 170 40 8 2
51 14 95 25 44 12 85 23 90 25 6 1 17 5 25 8 8 4 40 13 70 21 68 18 160 46
315 98 66 22 127 41 135 43 19 5 159 57 270 100 99 38 123 48 130 50 9 3 44
18 97 41 28 12 54 20 57 16 3 -3 6 0 6 6 0 7 8 12 18 12 10 0 26 6 37 14 11 7
30 17 43 20 12 4 53 22 90 39 76 35 69 32 100 42 12 4 22 11 22 16 0 5 7 9 15
9 8 0 112 50 232 110 257 130 254 129 452 242 84 48 157 88 161 88 5 0 10 4
12 8 2 5 41 32 88 60 47 29 94 58 104 65 18 11 318 211 370 247 31 21 198 142
216 157 8 6 69 54 135 105 132 103 126 99 240 194 150 125 288 247 332 293 13
13 23 22 23 19 0 -8 422 414 490 489 30 33 82 91 115 128 33 37 67 75 76 84 8
9 49 57 90 106 41 50 76 92 80 95 3 3 41 50 85 105 43 55 84 105 89 112 12 15
104 138 188 253 75 102 268 390 323 480 21 36 43 70 47 75 9 11 166 276 188
317 8 15 37 69 66 120 28 51 52 98 53 103 1 6 10 21 19 35 16 23 191 375 191
384 0 2 20 48 46 102 63 137 59 128 104 239 74 178 130 325 130 338 0 7 4 17
9 22 4 6 32 80 60 165 29 85 56 164 61 175 13 34 45 150 42 158 -1 4 3 7 8 7
6 0 10 8 10 18 0 9 12 55 26 102 14 47 27 92 29 100 21 78 48 178 51 193 5 19
3 14 38 160 14 59 28 118 30 130 3 12 7 33 10 47 20 92 41 198 52 260 2 14 10
59 18 100 8 41 16 93 19 115 4 22 11 74 17 115 6 41 13 91 16 110 2 19 6 52 9
73 9 65 14 110 20 177 4 36 9 81 11 100 3 19 7 69 10 110 2 41 6 95 9 120 19
224 26 884 11 1135 -12 199 -14 230 -16 230 0 0 -3 25 -4 55 -4 60 -13 157
-22 235 -7 52 -8 62 -19 160 -3 33 -8 71 -11 85 -2 14 -6 45 -10 70 -3 25 -8
56 -11 70 -2 14 -6 41 -8 60 -8 72 -73 409 -120 620 -3 13 -40 166 -50 210 -2
8 -23 83 -45 165 -23 83 -46 164 -50 180 -21 81 -125 393 -187 560 -25 66 -46
125 -47 130 -2 6 -8 21 -14 35 -6 14 -28 70 -50 125 -22 55 -52 126 -66 157
-14 31 -26 59 -26 62 0 3 -16 40 -37 83 -20 43 -37 80 -38 83 -21 60 -264 541
-321 635 -13 22 -27 47 -31 55 -6 15 -142 246 -175 298 -10 15 -25 41 -34 57
-23 41 -268 409 -313 470 -21 28 -59 79 -85 115 -26 36 -53 72 -60 81 -7 8
-31 40 -53 70 -39 52 -160 204 -226 282 -61 73 -69 82 -112 132 -24 28 -53 60
-63 73 -124 144 -536 565 -694 707 -123 111 -230 204 -323 280 -27 22 -56 47
-65 55 -8 8 -34 28 -55 44 -22 17 -42 33 -45 36 -3 3 -23 19 -45 35 -22 17
-42 32 -45 35 -16 18 -371 276 -418 305 -10 6 -19 12 -22 15 -21 23 -476 310
-491 310 -5 0 -9 5 -9 10 0 6 -5 10 -10 10 -6 0 -28 11 -50 25 -22 14 -64 38
-92 54 -29 15 -99 54 -155 85 -56 31 -105 56 -109 56 -4 0 -15 7 -25 16 -9 8
-24 16 -32 18 -8 1 -25 8 -38 17 -89 55 -611 291 -814 368 -33 13 -73 29 -90
36 -16 8 -43 17 -60 21 -16 4 -34 10 -40 14 -15 10 -281 102 -420 145 -66 20
-138 43 -160 50 -22 7 -58 18 -80 24 -22 5 -51 13 -65 17 -14 4 -27 7 -30 7
-3 0 -29 8 -58 18 -30 10 -57 18 -60 17 -4 -1 -27 4 -52 11 -25 7 -53 15 -62
17 -10 2 -26 6 -35 8 -70 17 -293 68 -313 71 -14 2 -36 6 -50 9 -86 19 -105
23 -296 56 -93 16 -226 36 -295 45 -68 8 -144 18 -169 21 -25 3 -65 7 -90 9
-25 2 -67 7 -95 10 -96 11 -161 16 -245 21 -47 3 -116 7 -155 10 -100 7 -810
10 -870 4z"/>
</g>
</svg>
